<svg id="Layer_1" xmlns="http://www.w3.org/2000/svg" viewBox="-23.5 522.8 642.3 67.3"><style>.st0{display:none;} .st1{fill:#FFFFFF;} .st2{fill:#3BEF71;} .st3{font-family:&apos;GothamMedium&apos;;} .st4{font-size:26px;} .st5{fill:none;stroke:#FFFFFF;stroke-width:0.9118;stroke-miterlimit:10;}</style><path class="st0" d="M-432 887.7H701v431H-432v-431z"/><path class="st1" d="M20.3 573.4l-7.8-11.2c4.7-2.2 7.9-7 7.9-12.5 0-7.6-6.2-13.8-13.8-13.8h-24v10.2H5.5c2.6 0 4.7 2.1 4.7 4.7s-2.1 4.7-4.7 4.7h-9.8l12.6 17.9h12z"/><path class="st2" d="M-13.7 554.7l2.3 7.2h7.5l-6.1 4.4 2.4 7.1-6.1-4.4-6.1 4.4 2.3-7.1-6-4.4h7.5z"/><path class="st1" d="M40.3 574.1c-2.3 0-4.4-.4-6.3-1.1-1.9-.7-3.5-1.7-4.9-3.1-1.4-1.3-2.4-2.9-3.2-4.7-.8-1.9-1.2-3.9-1.2-6.2 0-2.1.4-4.1 1.1-5.9.7-1.8 1.7-3.4 3-4.8s2.8-2.5 4.6-3.2c1.8-.8 3.7-1.2 5.9-1.2 2.5 0 4.7.4 6.5 1.3 1.8.9 3.4 2 4.5 3.5 1.2 1.4 2.1 3.1 2.7 5 .6 1.9.9 3.9.9 6.1v1c0 .4 0 .7-.1 1.1H34.6c.4 1.6 1.1 2.8 2.2 3.6 1.1.8 2.4 1.2 4 1.2 1.2 0 2.3-.2 3.3-.7 1-.5 2-1.2 3.1-2.2l5.6 4.7c-1.4 1.8-3.1 3.2-5.2 4.3-1.9.8-4.4 1.3-7.3 1.3zm4.2-17.5c-.2-1.6-.7-2.9-1.6-3.8-.9-.9-2-1.4-3.4-1.4s-2.5.5-3.3 1.4c-.9.9-1.4 2.2-1.7 3.8h10zM59.1 534.3h10.2v39.1H59.1v-39.1zM89.8 574.1c-2.3 0-4.4-.4-6.3-1.1-1.9-.7-3.5-1.7-4.9-3.1-1.4-1.3-2.4-2.9-3.2-4.7-.8-1.9-1.2-3.9-1.2-6.2 0-2.1.4-4.1 1.1-5.9.7-1.8 1.7-3.4 3-4.8s2.8-2.5 4.6-3.2c1.8-.8 3.7-1.2 5.9-1.2 2.5 0 4.7.4 6.5 1.3 1.8.9 3.4 2 4.5 3.5 1.2 1.4 2.1 3.1 2.7 5 .6 1.9.9 3.9.9 6.1v1c0 .4 0 .7-.1 1.1H84.1c.4 1.6 1.1 2.8 2.2 3.6 1.1.8 2.4 1.2 4 1.2 1.2 0 2.3-.2 3.3-.7 1-.5 2-1.2 3.1-2.2l5.6 4.7c-1.4 1.8-3.1 3.2-5.2 4.3-1.9.8-4.4 1.3-7.3 1.3zm4.2-17.5c-.2-1.6-.7-2.9-1.6-3.8-.9-.9-2-1.4-3.4-1.4s-2.5.5-3.3 1.4c-.9.9-1.4 2.2-1.7 3.8h10zM108.4 544.5h10.2v4.1l1.5-1.8c.6-.6 1.2-1.1 1.9-1.5.7-.4 1.5-.8 2.3-1 .8-.3 1.8-.4 2.8-.4 3.1 0 5.6.9 7.3 2.8 1.7 1.9 2.6 4.5 2.6 7.8v18.9h-10.2v-15.7c0-1.6-.4-2.8-1.1-3.6-.7-.8-1.7-1.2-2.9-1.2s-2.2.4-3 1.2c-.8.8-1.2 2-1.2 3.6v15.7h-10.2v-28.9zM154.4 574c-3.1 0-5.5-.7-7.2-2.2-1.7-1.5-2.6-3.9-2.6-7.4v-11.8h-3.4v-8.2h3.4v-7.3h10.2v7.3h6.7v8.2h-6.7v9.8c0 1 .2 1.8.7 2.2.5.4 1.2.7 2.1.7.7 0 1.3-.1 2-.3.6-.2 1.3-.4 1.9-.7v8c-.9.5-2 .9-3.2 1.2-1.2.4-2.5.5-3.9.5zM166.7 534.3h10.2v39.1h-10.2v-39.1zM197.4 574.1c-2.3 0-4.4-.4-6.3-1.1-1.9-.7-3.5-1.7-4.9-3.1-1.4-1.3-2.4-2.9-3.2-4.7-.8-1.9-1.2-3.9-1.2-6.2 0-2.1.4-4.1 1.1-5.9.7-1.8 1.7-3.4 3-4.8s2.8-2.5 4.6-3.2c1.8-.8 3.7-1.2 5.9-1.2 2.5 0 4.7.4 6.5 1.3 1.8.9 3.4 2 4.5 3.5 1.2 1.4 2.1 3.1 2.7 5 .6 1.9.9 3.9.9 6.1v1c0 .4 0 .7-.1 1.1h-19.4c.4 1.6 1.1 2.8 2.2 3.6 1.1.8 2.4 1.2 4 1.2 1.2 0 2.3-.2 3.3-.7 1-.5 2-1.2 3.1-2.2l5.6 4.7c-1.4 1.8-3.1 3.2-5.2 4.3-1.8.8-4.2 1.3-7.1 1.3zm4.2-17.5c-.2-1.6-.7-2.9-1.6-3.8-.9-.9-2-1.4-3.4-1.4s-2.5.5-3.3 1.4c-.9.9-1.4 2.2-1.7 3.8h10zM227.5 574.1c-2.5 0-4.9-.3-7.2-1s-4.5-1.8-6.5-3.2l3.8-6.2c1.7 1.1 3.4 1.9 5.1 2.5 1.7.6 3.3.8 4.8.8 1.7 0 2.6-.5 2.6-1.6v-.1c0-.6-.4-1-1.2-1.3-.8-.3-1.9-.7-3.5-1.1-1.4-.4-2.8-.8-4-1.3-1.2-.5-2.3-1.1-3.3-1.8-.9-.7-1.7-1.5-2.2-2.5-.5-1-.8-2.2-.8-3.7v-.1c0-1.5.3-2.9.9-4.1.6-1.2 1.4-2.2 2.4-3 1-.8 2.3-1.4 3.7-1.8 1.4-.4 3-.6 4.6-.6 2.1 0 4.2.3 6.3.9 2.1.6 3.9 1.4 5.6 2.5l-3.5 6.4c-1.5-.8-3-1.5-4.5-2s-2.9-.7-4-.7c-.8 0-1.4.1-1.8.4-.4.3-.6.6-.6 1v.1c0 .6.4 1 1.2 1.4.8.3 2 .7 3.5 1.2 1.4.4 2.8.8 4 1.3 1.2.5 2.3 1.1 3.3 1.8.9.7 1.7 1.5 2.2 2.5.5 1 .8 2.2.8 3.6v.1c0 1.6-.3 3-.9 4.2-.6 1.2-1.4 2.2-2.4 3-1 .8-2.3 1.4-3.7 1.8s-3 .6-4.7.6zM255.5 574.1c-2.5 0-4.9-.3-7.2-1s-4.5-1.8-6.5-3.2l3.8-6.2c1.7 1.1 3.4 1.9 5.1 2.5 1.7.6 3.3.8 4.8.8 1.7 0 2.6-.5 2.6-1.6v-.1c0-.6-.4-1-1.2-1.3-.8-.3-1.9-.7-3.5-1.1-1.4-.4-2.8-.8-4-1.3-1.2-.5-2.3-1.1-3.3-1.8-.9-.7-1.7-1.5-2.2-2.5-.5-1-.8-2.2-.8-3.7v-.1c0-1.5.3-2.9.9-4.1.6-1.2 1.4-2.2 2.4-3 1-.8 2.3-1.4 3.7-1.8 1.4-.4 3-.6 4.6-.6 2.1 0 4.2.3 6.3.9 2.1.6 3.9 1.4 5.6 2.5l-3.5 6.4c-1.5-.8-3-1.5-4.5-2s-2.9-.7-4-.7c-.8 0-1.4.1-1.8.4-.4.3-.6.6-.6 1v.1c0 .6.4 1 1.2 1.4.8.3 2 .7 3.5 1.2 1.4.4 2.8.8 4 1.3 1.2.5 2.3 1.1 3.3 1.8.9.7 1.7 1.5 2.2 2.5.5 1 .8 2.2.8 3.6v.1c0 1.6-.3 3-.9 4.2-.6 1.2-1.4 2.2-2.4 3-1 .8-2.3 1.4-3.7 1.8-1.4.4-3 .6-4.7.6z"/><text transform="matrix(1 -.00243 .00243 1 306.664 567.158)" class="st1 st3 st4">Movement and Strength</text><path class="st5" d="M287 522.8v67.4"/></svg>