<svg id="Layer_1" xmlns="http://www.w3.org/2000/svg" viewBox="150.7 484.7 286.1 144.3"><style>.st0{display:none;} .st1{fill:#FFFFFF;} .st2{fill:#3BEF71;} .st3{font-family:&apos;GothamBlack&apos;;} .st4{font-size:41.1566px;} .st5{letter-spacing:1;} .st6{font-family:&apos;GothamMedium&apos;;} .st7{font-size:18px;}</style><path class="st0" d="M-432 887.7H701v431H-432v-431z"/><path class="st1" d="M310.7 542.3h16.5l-11.9-17.1c7.2-3.4 12.1-10.7 12.1-19.2 0-11.7-9.5-21.2-21.2-21.2h-36.7v13.7h36.7c4.2 0 7.5 3.4 7.5 7.5 0 4.2-3.4 7.5-7.5 7.5h-15.7l20.2 28.8z"/><path class="st2" d="M275.1 513.6l3.5 11h11.5l-9.3 6.7 3.6 11-9.3-6.8-9.4 6.8 3.6-11-9.3-6.7h11.5z"/><text transform="translate(150.66 597.3)" class="st1 st3 st4 st5">RELENTLESS</text><text transform="translate(190.507 625.983)" class="st2 st6 st7">Movement &amp; Strength</text></svg>