<svg id="Layer_1" xmlns="http://www.w3.org/2000/svg" viewBox="84.8 527.9 443.7 61"><style>.st0{display:none;} .st1{fill:#FFFFFF;} .st2{fill:#3BEF71;}</style><path class="st0" d="M-432 887.7H701v431H-432v-431z"/><path class="st1" d="M152 587.8l-11.9-17.1c7.2-3.4 12.1-10.7 12.1-19.2 0-11.7-9.5-21.2-21.2-21.2H94.3V546h35.1c4 0 7.2 3.2 7.2 7.2s-3.2 7.2-7.2 7.2h-15l19.3 27.5H152z"/><path class="st2" d="M99.9 559.1l3.6 10.9H115l-9.3 6.8 3.5 11-9.3-6.8-9.3 6.8 3.5-11-9.3-6.8h11.5z"/><path class="st1" d="M180.4 588.8c-3.5 0-6.7-.6-9.6-1.7-2.9-1.1-5.4-2.7-7.5-4.7-2.1-2-3.7-4.4-4.9-7.3-1.2-2.8-1.8-6-1.8-9.4v-.2c0-3.2.5-6.2 1.6-9.1 1.1-2.8 2.6-5.3 4.6-7.4 2-2.1 4.4-3.8 7.1-5 2.7-1.2 5.7-1.8 9-1.8 3.8 0 7.2.7 10 2s5.1 3.1 7 5.3c1.8 2.2 3.2 4.8 4.1 7.7.9 2.9 1.4 6 1.4 9.3v1.6c0 .5 0 1.1-.1 1.6h-29.7c.6 2.5 1.7 4.3 3.4 5.5 1.7 1.2 3.7 1.8 6.2 1.8 1.9 0 3.6-.4 5.1-1.1 1.6-.7 3.1-1.9 4.7-3.4l8.6 7.1c-2.1 2.7-4.8 4.9-7.9 6.6-3.1 1.8-6.8 2.6-11.3 2.6zm6.4-26.9c-.3-2.5-1.1-4.4-2.5-5.9-1.4-1.4-3.1-2.2-5.3-2.2-2.1 0-3.8.7-5.1 2.2-1.3 1.5-2.2 3.4-2.6 5.9h15.5zM209.2 527.9h15.7v59.9h-15.7v-59.9zM256.3 588.8c-3.5 0-6.7-.6-9.6-1.7-2.9-1.1-5.4-2.7-7.5-4.7-2.1-2-3.7-4.4-4.9-7.3-1.2-2.8-1.8-6-1.8-9.4v-.2c0-3.2.5-6.2 1.6-9.1 1.1-2.8 2.6-5.3 4.6-7.4 2-2.1 4.4-3.8 7.1-5 2.7-1.2 5.7-1.8 9-1.8 3.8 0 7.2.7 10 2s5.1 3.1 7 5.3c1.8 2.2 3.2 4.8 4.1 7.7.9 2.9 1.4 6 1.4 9.3v1.6c0 .5 0 1.1-.1 1.6h-29.7c.6 2.5 1.7 4.3 3.4 5.5 1.7 1.2 3.7 1.8 6.2 1.8 1.9 0 3.6-.4 5.1-1.1 1.6-.7 3.1-1.9 4.7-3.4l8.6 7.1c-2.1 2.7-4.8 4.9-7.9 6.6-3 1.8-6.8 2.6-11.3 2.6zm6.4-26.9c-.3-2.5-1.1-4.4-2.5-5.9-1.4-1.4-3.1-2.2-5.3-2.2-2.1 0-3.8.7-5.1 2.2-1.3 1.5-2.2 3.4-2.6 5.9h15.5zM284.8 543.4h15.7v6.2c.7-.9 1.5-1.8 2.3-2.7.9-.9 1.8-1.6 2.9-2.3 1.1-.7 2.3-1.2 3.6-1.6s2.7-.6 4.3-.6c4.8 0 8.5 1.5 11.2 4.3 2.7 2.9 4 6.9 4 12v29.1h-15.7v-24c0-2.5-.6-4.3-1.7-5.6-1.1-1.3-2.6-1.9-4.5-1.9s-3.4.6-4.7 1.9c-1.2 1.3-1.8 3.1-1.8 5.6v24h-15.7v-44.4zM355.4 588.7c-4.7 0-8.4-1.1-11.1-3.4-2.6-2.2-4-6-4-11.3v-18.1H335v-12.6h5.3v-11.2H356v11.2h10.3v12.6H356v15c0 1.6.4 2.7 1.1 3.4.7.7 1.8 1 3.2 1 1 0 2.1-.1 3-.4 1-.3 1.9-.6 2.9-1.1V586c-1.4.8-3 1.4-4.8 1.8-1.8.6-3.8.9-6 .9zM374.2 527.9h15.7v59.9h-15.7v-59.9zM421.3 588.8c-3.5 0-6.7-.6-9.6-1.7-2.9-1.1-5.4-2.7-7.5-4.7-2.1-2-3.7-4.4-4.9-7.3-1.2-2.8-1.8-6-1.8-9.4v-.2c0-3.2.5-6.2 1.6-9.1 1.1-2.8 2.6-5.3 4.6-7.4 2-2.1 4.4-3.8 7.1-5 2.7-1.2 5.7-1.8 9-1.8 3.8 0 7.2.7 10 2s5.1 3.1 7 5.3c1.8 2.2 3.2 4.8 4.1 7.7.9 2.9 1.4 6 1.4 9.3v1.6c0 .5 0 1.1-.1 1.6h-29.7c.6 2.5 1.7 4.3 3.4 5.5 1.7 1.2 3.7 1.8 6.2 1.8 1.9 0 3.6-.4 5.1-1.1 1.6-.7 3.1-1.9 4.7-3.4l8.6 7.1c-2.1 2.7-4.8 4.9-7.9 6.6-3.1 1.8-6.9 2.6-11.3 2.6zm6.4-26.9c-.3-2.5-1.1-4.4-2.5-5.9-1.4-1.4-3.1-2.2-5.3-2.2-2.1 0-3.8.7-5.1 2.2-1.3 1.5-2.2 3.4-2.6 5.9h15.5zM467.4 588.7c-3.8 0-7.4-.5-11-1.6-3.6-1.1-6.9-2.7-10-5l5.8-9.4c2.6 1.7 5.2 3 7.8 3.8 2.7.8 5.1 1.3 7.4 1.3 2.6 0 3.9-.8 3.9-2.4v-.2c0-.9-.6-1.6-1.8-2.1-1.2-.5-3-1.1-5.3-1.7-2.2-.5-4.2-1.2-6.2-1.9-1.9-.7-3.6-1.6-5-2.7s-2.5-2.4-3.4-3.9c-.8-1.5-1.2-3.4-1.2-5.7v-.2c0-2.4.5-4.4 1.4-6.3.9-1.8 2.1-3.4 3.7-4.6 1.6-1.2 3.5-2.2 5.6-2.8 2.2-.7 4.5-1 7.1-1 3.3 0 6.5.5 9.7 1.4 3.2.9 6 2.2 8.6 3.8l-5.3 9.8c-2.3-1.3-4.6-2.3-7-3-2.4-.7-4.4-1.1-6.2-1.1-1.2 0-2.1.2-2.7.6-.6.4-.9.9-.9 1.5v.2c0 .9.6 1.6 1.8 2.1 1.2.5 3 1.1 5.4 1.8 2.2.6 4.2 1.3 6.2 2 1.9.7 3.6 1.6 5 2.7s2.5 2.4 3.4 3.9c.8 1.5 1.2 3.4 1.2 5.5v.2c0 2.5-.4 4.6-1.3 6.4-.9 1.8-2.1 3.4-3.7 4.6-1.6 1.3-3.5 2.2-5.7 2.8s-4.6 1.2-7.3 1.2zM510.4 588.7c-3.8 0-7.4-.5-11-1.6-3.6-1.1-6.9-2.7-10-5l5.8-9.4c2.6 1.7 5.2 3 7.8 3.8 2.7.8 5.1 1.3 7.4 1.3 2.6 0 3.9-.8 3.9-2.4v-.2c0-.9-.6-1.6-1.8-2.1-1.2-.5-3-1.1-5.3-1.7-2.2-.5-4.2-1.2-6.2-1.9-1.9-.7-3.6-1.6-5-2.7s-2.5-2.4-3.4-3.9c-.8-1.5-1.2-3.4-1.2-5.7v-.2c0-2.4.5-4.4 1.4-6.3.9-1.8 2.1-3.4 3.7-4.6 1.6-1.2 3.5-2.2 5.6-2.8 2.2-.7 4.5-1 7.1-1 3.3 0 6.5.5 9.7 1.4 3.2.9 6 2.2 8.6 3.8l-5.3 9.8c-2.3-1.3-4.6-2.3-7-3-2.4-.7-4.4-1.1-6.2-1.1-1.2 0-2.1.2-2.7.6-.6.4-.9.9-.9 1.5v.2c0 .9.6 1.6 1.8 2.1 1.2.5 3 1.1 5.4 1.8 2.2.6 4.2 1.3 6.2 2 1.9.7 3.6 1.6 5 2.7s2.5 2.4 3.4 3.9c.8 1.5 1.2 3.4 1.2 5.5v.2c0 2.5-.4 4.6-1.3 6.4-.9 1.8-2.1 3.4-3.7 4.6-1.6 1.3-3.5 2.2-5.7 2.8s-4.6 1.2-7.3 1.2z"/></svg>