<svg id="Layer_1" xmlns="http://www.w3.org/2000/svg" viewBox="-11.2 366.4 598.9 59.4"><style>.st0{display:none;} .st1{fill:#FFFFFF;} .st2{fill:#3BEF71;}</style><path class="st0" d="M-426 520.1H707v431H-426v-431z"/><path class="st1" d="M39.6 424.9H56l-11.9-17.1c7.2-3.4 12.1-10.7 12.1-19.2 0-11.7-9.5-21.2-21.2-21.2H-1.7v13.7H35c4.2 0 7.5 3.4 7.5 7.5 0 4.2-3.4 7.5-7.5 7.5H19.3l20.3 28.8z"/><path class="st2" d="M3.9 396.3l3.6 10.9H19L9.7 414l3.5 10.9-9.3-6.7-9.3 6.7 3.5-10.9-9.3-6.8H.3z"/><g><path class="st1" d="M71.7 367.4h46.1V381H87.4v8.7H115v12.6H87.4v9.1h30.9v13.5H71.7v-57.5zM130.6 367.4h15.9v43.5h27.8v14h-43.7v-57.5zM185.2 367.4h46.1V381h-30.4v8.7h27.6v12.6h-27.6v9.1h30.9v13.5h-46.5v-57.5zM244 367.4h14.9l23.7 30.4v-30.4h15.7v57.4h-14l-24.6-31.5v31.5H244v-57.4zM326.6 381.4h-17.2v-14h50.4v14h-17.2v43.5h-15.9v-43.5zM370.8 367.4h15.9v43.5h27.8v14h-43.7v-57.5zM425.5 367.4h46.1V381h-30.4v8.7h27.6v12.6h-27.6v9.1H472v13.5h-46.5v-57.5zM506.9 425.9c-5.1 0-10-.8-14.6-2.4-4.6-1.6-8.7-4-12.3-7.2l8.9-10.6c5.7 4.6 12 6.9 18.6 6.9 2.1 0 3.8-.3 4.9-1 1.1-.7 1.7-1.7 1.7-2.9v-.2c0-.6-.1-1.1-.4-1.6-.3-.5-.8-.9-1.5-1.4-.7-.4-1.7-.9-3-1.3s-2.8-.8-4.8-1.3c-3.1-.7-5.9-1.5-8.5-2.3-2.6-.8-4.9-1.9-6.9-3.3-1.9-1.3-3.5-3-4.6-5-1.1-2-1.7-4.5-1.7-7.4v-.2c0-2.7.5-5.1 1.5-7.4s2.5-4.2 4.4-5.8c1.9-1.6 4.3-2.9 7-3.8 2.7-.9 5.8-1.4 9.3-1.4 4.9 0 9.3.6 13.2 1.9 3.9 1.3 7.3 3.2 10.5 5.7l-8 11.3c-2.6-1.9-5.3-3.3-8.1-4.2-2.8-1-5.4-1.4-8-1.4-1.9 0-3.4.4-4.3 1.1s-1.4 1.6-1.4 2.6v.2c0 .7.2 1.2.5 1.7s.8.9 1.6 1.4c.7.4 1.8.8 3 1.2 1.3.4 2.9.8 4.9 1.3 3.3.7 6.2 1.5 8.9 2.5s4.9 2.1 6.8 3.5c1.9 1.4 3.3 3 4.3 5 1 1.9 1.5 4.2 1.5 6.9v.2c0 2.9-.6 5.6-1.7 7.9-1.1 2.3-2.7 4.2-4.7 5.9-2 1.6-4.5 2.8-7.3 3.7-3 .7-6.2 1.2-9.7 1.2zM564.5 425.9c-5.1 0-10-.8-14.6-2.4-4.6-1.6-8.7-4-12.3-7.2l8.9-10.6c5.7 4.6 12 6.9 18.6 6.9 2.1 0 3.8-.3 4.9-1 1.1-.7 1.7-1.7 1.7-2.9v-.2c0-.6-.1-1.1-.4-1.6-.3-.5-.8-.9-1.5-1.4-.7-.4-1.7-.9-3-1.3-1.2-.4-2.8-.8-4.8-1.3-3.1-.7-5.9-1.5-8.5-2.3-2.6-.8-4.9-1.9-6.9-3.3-1.9-1.3-3.5-3-4.6-5-1.1-2-1.7-4.5-1.7-7.4v-.2c0-2.7.5-5.1 1.5-7.4 1-2.2 2.5-4.2 4.4-5.8 1.9-1.6 4.3-2.9 7-3.8 2.7-.9 5.8-1.4 9.3-1.4 4.9 0 9.3.6 13.2 1.9 3.9 1.3 7.3 3.2 10.5 5.7l-8 11.3c-2.6-1.9-5.3-3.3-8.1-4.2-2.8-1-5.4-1.4-8-1.4-1.9 0-3.4.4-4.3 1.1-1 .7-1.4 1.6-1.4 2.6v.2c0 .7.1 1.2.5 1.7.3.5.8.9 1.6 1.4.7.4 1.8.8 3 1.2 1.3.4 2.9.8 4.9 1.3 3.3.7 6.2 1.5 8.9 2.5s4.9 2.1 6.8 3.5c1.9 1.4 3.3 3 4.3 5 1 1.9 1.5 4.2 1.5 6.9v.2c0 2.9-.6 5.6-1.7 7.9-1.1 2.3-2.7 4.2-4.7 5.9s-4.5 2.8-7.3 3.7c-3 .7-6.2 1.2-9.7 1.2z"/></g></svg>