<svg id="Layer_1" xmlns="http://www.w3.org/2000/svg" viewBox="-254.8 345.8 597.8 98.8">
	<style>.st0{display:none;} .st1{fill:#FFFFFF;} .st2{fill:#3BEF71;} .st3{font-family:&apos;GothamBlack&apos;;} .st4{font-size:60.9188px;} .st5{letter-spacing:6;} .st6{font-family:&apos;GothamMedium&apos;;} .st7{font-size:26.6431px;} .st8{letter-spacing:2;}</style>
	<path class="st0" d="M-420 172.9H713v431H-420z"/>
	<path class="st1" d="M-179.7 440h24.4l-17.6-25.4c10.6-5 18-15.8 18-28.4 0-17.3-14.1-31.4-31.4-31.4h-54.4v20.3h54.4c6.1 0 11.1 5 11.1 11.1s-5 11.1-11.1 11.1h-23.2l29.8 42.7z"/>
	<path class="st2" d="M-232.5 397.6l5.3 16.2h17l-13.8 10 5.3 16.2-13.8-10-13.8 10 5.3-16.2-13.8-10h17.1z"/>
	<text transform="translate(-126.173 397.577)" class="st1 st3 st4 st5">RELENTLESS</text>
	<text transform="translate(-125.427 440.033)" class="st2 st6 st7 st8">Movement &amp; Strength</text>
</svg>