<svg id="Layer_1" xmlns="http://www.w3.org/2000/svg" viewBox="0 0 371.9 51.3"><style>.st0{fill:#FFFFFF;} .st1{fill:#3BEE71;}</style><g id="XMLID_216_"><path id="XMLID_218_" class="st0" d="M54.6 50.4l-9.7-13.9c5.8-2.8 9.9-8.7 9.9-15.6 0-9.5-7.7-17.2-17.2-17.2H7.7v12.8h28.5c3.2 0 5.8 2.6 5.8 5.8 0 3.2-2.6 5.8-5.8 5.8H24l15.7 22.3h14.9z"/><path id="XMLID_217_" class="st1" d="M12.3 27.1l2.8 8.9h9.4l-7.6 5.5 2.9 8.9-7.5-5.5-7.6 5.5 2.9-8.9L0 36h9.4z"/></g><path id="XMLID_212_" class="st0" d="M164.7 13.1h12.9l-1.9 8.8c2.1-3.8 3.5-5.1 4.2-5.9.7-.7 1.5-1.4 2.5-1.9.9-.6 1.9-1 3-1.3 1.1-.3 2.3-.5 3.6-.5 4 0 7.2 1.2 9.4 3.7 2.2 2.4 3.4 5.8 3.4 10.1v24.4h-13.2V30.2c0-2.1-.5-3.6-1.4-4.7-1-1.1-2.2-1.6-3.7-1.6-1.6 0-2.9.5-3.9 1.6s-1.5 2.6-1.5 4.7v20.2h-13.2V13.1z"/><path id="XMLID_209_" class="st0" d="M223.5 51.2c-4 0-7.1-.9-9.3-2.8-2.2-1.9-3.3-5.1-3.3-9.5V23.6h-4.4V13.1h4.4V3.6h13.2v9.5h8.7v10.6h-8.7v12.6c0 1.3.3 2.3.9 2.9.6.6 1.5.9 2.7.9.9 0 1.7-.1 2.6-.3.8-.2 1.6-.5 2.4-.9V49c-1.2.6-2.6 1.2-4.1 1.6-1.6.4-3.3.6-5.1.6z"/><path id="XMLID_204_" class="st0" d="M318.9 51.2c-3.2 0-6.3-.4-9.3-1.3-3-.9-5.8-2.3-8.4-4.2l4.9-7.9c2.2 1.4 4.4 2.5 6.6 3.2 2.2.7 4.3 1.1 6.2 1.1 2.2 0 3.3-.7 3.3-2V40c0-.7-.5-1.3-1.5-1.7-1-.4-2.5-.9-4.5-1.5-1.8-.5-3.6-1-5.2-1.6-1.6-.6-3-1.4-4.2-2.3-1.2-.9-2.1-2-2.8-3.3-.7-1.3-1-2.9-1-4.8v-.1c0-2 .4-3.7 1.1-5.3.8-1.5 1.8-2.8 3.1-3.9 1.3-1 2.9-1.8 4.7-2.4 1.8-.6 3.8-.8 6-.8 2.8 0 5.5.4 8.1 1.1 2.7.8 5.1 1.8 7.3 3.2l-4.5 8.3c-1.9-1.1-3.9-1.9-5.9-2.5-2-.6-3.7-.9-5.2-.9-1 0-1.8.2-2.3.5-.5.3-.8.8-.8 1.3v.1c0 .7.5 1.3 1.6 1.8 1 .4 2.5 1 4.5 1.6 1.8.5 3.6 1.1 5.2 1.7 1.6.6 3 1.4 4.2 2.3 1.2.9 2.1 2 2.8 3.3.7 1.3 1 2.8 1 4.6v.1c0 2.1-.4 3.9-1.1 5.4-.7 1.5-1.8 2.8-3.1 3.9s-2.9 1.9-4.8 2.4-3.8.7-6 .7z"/><path id="XMLID_34_" class="st0" d="M356.7 51.2c-3.2 0-6.3-.4-9.3-1.3-3-.9-5.8-2.3-8.4-4.2l4.9-7.9c2.2 1.4 4.4 2.5 6.6 3.2 2.2.7 4.3 1.1 6.2 1.1 2.2 0 3.3-.7 3.3-2V40c0-.7-.5-1.3-1.5-1.7-1-.4-2.5-.9-4.5-1.5-1.8-.5-3.6-1-5.2-1.6-1.6-.6-3-1.4-4.2-2.3-1.2-.9-2.1-2-2.8-3.3-.7-1.3-1-2.9-1-4.8v-.1c0-2 .4-3.7 1.1-5.3.8-1.5 1.8-2.8 3.1-3.9 1.3-1 2.9-1.8 4.7-2.4 1.8-.6 3.8-.8 6-.8 2.8 0 5.5.4 8.1 1.1 2.7.8 5.1 1.8 7.3 3.2l-4.5 8.3c-1.9-1.1-3.9-1.9-5.9-2.5-2-.6-3.7-.9-5.2-.9-1 0-1.8.2-2.3.5-.5.3-.8.8-.8 1.3v.1c0 .7.5 1.3 1.6 1.8 1 .4 2.5 1 4.5 1.6 1.8.5 3.6 1.1 5.2 1.7 1.6.6 3 1.4 4.2 2.3 1.2.9 2.1 2 2.8 3.3.7 1.3 1 2.8 1 4.6v.1c0 2.1-.4 3.9-1.1 5.4-.7 1.5-1.8 2.8-3.1 3.9s-2.9 1.9-4.8 2.4-3.8.7-6 .7z"/><path id="XMLID_197_" class="st0" d="M86.6 38s-2.9 4.1-8.3 3.7c-4.7-.4-7-3.2-7-7.1h25.2c0-.5.1-.9.1-1.4v-1.3c0-2.8-.4-4.5-1.1-7-.8-2.5-1.9-4.6-3.5-6.5-1.5-1.9-3.5-3.3-5.9-4.5-2.4-1.1-5.2-1.7-8.4-1.7-2.8 0-5.3.5-7.6 1.5s-4.3 2.4-6 4.2c-1.7 1.8-3 3.8-3.9 6.2-.9 2.4-1.4 4.9-1.4 7.6v.1c0 2.9.5 5.5 1.5 7.9 1 2.4 2.4 4.4 4.1 6.1 1.8 1.7 3.9 3 6.3 3.9 2.4.9 5.1 1.4 8.1 1.4 3.7 0 6.9-.8 9.6-2.1 2.2-1 4.5-3.2 6.1-6l-7.9-5zm-8.3-10.2h-7c.3-2.1 1.3-3.7 2.5-4.7s2.7-1.7 4.5-1.7c1.8 0 3.3.6 4.5 1.7 1.1 1 2.1 2.6 2.5 4.7h-7z"/><path id="XMLID_188_" class="st0" d="M149.1 38s-2.9 4.1-8.3 3.7c-4.7-.4-7-3.2-7-7.1H159c0-.5.1-.9.1-1.4v-1.3c0-2.8-.4-4.5-1.1-7-.8-2.5-1.9-4.6-3.5-6.5-1.5-1.9-3.5-3.3-5.9-4.5-2.4-1.1-5.2-1.7-8.4-1.7-2.8 0-5.3.5-7.6 1.5s-4.3 2.4-6 4.2c-1.7 1.8-3 3.8-3.9 6.2-.9 2.4-1.4 4.9-1.4 7.6v.1c0 2.9.5 5.5 1.5 7.9 1 2.4 2.4 4.4 4.1 6.1 1.8 1.7 3.9 3 6.3 3.9 2.4.9 5.1 1.4 8.1 1.4 3.7 0 6.9-.8 9.6-2.1 2.2-1 4.5-3.2 6.1-6l-7.9-5zm-8.3-10.2h-7c.3-2.1 1.3-3.7 2.5-4.7s2.7-1.7 4.5-1.7c1.8 0 3.3.6 4.5 1.7 1.1 1 2.1 2.6 2.5 4.7h-7z"/><g id="XMLID_177_"><path id="XMLID_221_" class="st0" d="M101.9 0h12.9v39.8c0 2.2 1 3 1.9 3 .4 0 .7 0 1.3-.1l1.3 7.8c-1.2.5-5.2.9-7.6.9-7.3 0-9.7-4.7-9.7-11.9V0z"/></g><g id="XMLID_206_"><path id="XMLID_207_" class="st0" d="M239.1 0H252v39.8c0 2.2 1 3 1.9 3 .4 0 .7 0 1.3-.1l1.3 7.8c-1.2.5-5.2.9-7.6.9-7.3 0-9.7-4.7-9.7-11.9V0z"/></g><path id="XMLID_194_" class="st0" d="M287.5 38s-2.9 4.1-8.3 3.7c-4.7-.4-7-3.2-7-7.1h25.2c0-.5.1-.9.1-1.4v-1.3c0-2.8-.4-4.5-1.1-7-.8-2.5-1.9-4.6-3.5-6.5-1.5-1.9-3.5-3.3-5.9-4.5-2.4-1.1-5.2-1.7-8.4-1.7-2.8 0-5.3.5-7.6 1.5s-4.3 2.4-6 4.2c-1.7 1.8-3 3.8-3.9 6.2-.9 2.4-1.4 4.9-1.4 7.6v.1c0 2.9.5 5.5 1.5 7.9 1 2.4 2.4 4.4 4.1 6.1 1.8 1.7 3.9 3 6.3 3.9 2.4.9 5.1 1.4 8.1 1.4 3.7 0 6.9-.8 9.6-2.1 2.2-1 4.5-3.2 6.1-6l-7.9-5zm-8.3-10.2h-7c.3-2.1 1.3-3.7 2.5-4.7s2.7-1.7 4.5-1.7c1.8 0 3.3.6 4.5 1.7 1.1 1 2.1 2.6 2.5 4.7h-7z"/></svg>